<svg width="22" height="26" viewBox="0 0 22 26" fill="none" xmlns="http://www.w3.org/2000/svg">
<path d="M19.6429 0.378662H2.35714C1.73199 0.378662 1.13244 0.656773 0.690391 1.15181C0.248341 1.64685 0 2.31827 0 3.01836L0 22.3762C0 23.0763 0.248341 23.7477 0.690391 24.2427C1.13244 24.7378 1.73199 25.0159 2.35714 25.0159H9.0971V16.6398H6.00335V12.6973H9.0971V9.69241C9.0971 6.27455 10.9141 4.38661 13.697 4.38661C15.0297 4.38661 16.4234 4.65278 16.4234 4.65278V8.0074H14.8878C13.3748 8.0074 12.9029 9.05888 12.9029 10.1373V12.6973H16.2805L15.7403 16.6398H12.9029V25.0159H19.6429C20.268 25.0159 20.8676 24.7378 21.3096 24.2427C21.7517 23.7477 22 23.0763 22 22.3762V3.01836C22 2.31827 21.7517 1.64685 21.3096 1.15181C20.8676 0.656773 20.268 0.378662 19.6429 0.378662Z" fill="black"/>
</svg>
