<svg width="22" height="26" viewBox="0 0 22 26" fill="none" xmlns="http://www.w3.org/2000/svg">
<path d="M11.0049 6.3806C7.88274 6.3806 5.36439 9.20084 5.36439 12.6973C5.36439 16.1937 7.88274 19.0139 11.0049 19.0139C14.1271 19.0139 16.6454 16.1937 16.6454 12.6973C16.6454 9.20084 14.1271 6.3806 11.0049 6.3806ZM11.0049 16.8039C8.98728 16.8039 7.33783 14.9623 7.33783 12.6973C7.33783 10.4323 8.98237 8.59061 11.0049 8.59061C13.0274 8.59061 14.672 10.4323 14.672 12.6973C14.672 14.9623 13.0225 16.8039 11.0049 16.8039ZM18.1918 6.12222C18.1918 6.94135 17.6027 7.59556 16.8762 7.59556C16.1447 7.59556 15.5605 6.93585 15.5605 6.12222C15.5605 5.30858 16.1496 4.64888 16.8762 4.64888C17.6027 4.64888 18.1918 5.30858 18.1918 6.12222ZM21.9276 7.61755C21.8441 5.64393 21.4416 3.89571 20.1505 2.45536C18.8643 1.015 17.3032 0.564204 15.5409 0.465248C13.7245 0.3498 8.28037 0.3498 6.46402 0.465248C4.70657 0.558707 3.14549 1.0095 1.8544 2.44986C0.563316 3.89022 0.165681 5.63843 0.0773179 7.61205C-0.0257726 9.64614 -0.0257726 15.7429 0.0773179 17.777C0.160772 19.7506 0.563316 21.4988 1.8544 22.9392C3.14549 24.3795 4.70166 24.8303 6.46402 24.9293C8.28037 25.0447 13.7245 25.0447 15.5409 24.9293C17.3032 24.8358 18.8643 24.385 20.1505 22.9392C21.4367 21.4988 21.8392 19.7506 21.9276 17.777C22.0307 15.7429 22.0307 9.65164 21.9276 7.61755ZM19.5811 19.9595C19.1981 21.037 18.4569 21.8672 17.4898 22.3015C16.0416 22.9447 12.6053 22.7963 11.0049 22.7963C9.40455 22.7963 5.96329 22.9392 4.52003 22.3015C3.55785 21.8727 2.81658 21.0425 2.42876 19.9595C1.8544 18.3377 1.98695 14.4895 1.98695 12.6973C1.98695 10.9051 1.85931 7.0513 2.42876 5.43502C2.81167 4.35751 3.55294 3.52738 4.52003 3.09307C5.9682 2.44986 9.40455 2.59829 11.0049 2.59829C12.6053 2.59829 16.0465 2.45536 17.4898 3.09307C18.452 3.52188 19.1932 4.35201 19.5811 5.43502C20.1554 7.0568 20.0229 10.9051 20.0229 12.6973C20.0229 14.4895 20.1554 18.3432 19.5811 19.9595Z" fill="black"/>
</svg>
