<svg width="110" height="75" viewBox="0 0 110 75" fill="none" xmlns="http://www.w3.org/2000/svg">
<path d="M94.8559 0C87.1441 0 80.8644 6.27966 80.8644 13.9915V52.9915C80.8644 55.9661 83.2881 58.5 86.3729 58.5C89.3475 58.5 91.8814 56.0763 91.8814 52.9915V13.9915C91.8814 12.1186 93.4237 10.6864 95.2966 10.9068C96.9491 11.0169 98.161 12.5593 98.161 14.1017V52.1102C98.161 58.6102 92.8729 63.8983 86.3729 63.8983H81.0848C74.4746 63.8983 68.4153 61.4746 63.7881 57.5085C66.322 53.5424 68.1949 49.1356 69.0763 44.2881C69.2966 43.1864 69.4068 42.0847 69.6271 40.983C69.6271 40.983 69.6271 40.983 69.6271 40.8729C69.7373 40.2119 69.7373 39.661 69.7373 39C69.7373 38.4491 69.7373 37.7881 69.7373 37.2373C69.7373 37.2373 69.7373 37.2373 69.7373 37.1271C69.7373 37.1271 69.7373 37.1271 69.7373 37.0169C69.6271 28.5339 62.7966 21.7034 54.3135 21.7034C45.8305 21.7034 38.8898 28.5339 38.8898 37.0169C38.8898 37.0169 38.8898 37.0169 38.8898 37.1271C38.8898 37.1271 38.8898 37.1271 38.8898 37.2373C38.8898 37.8983 38.8898 38.4491 38.8898 39C38.8898 39.661 39 40.2119 39 40.8729C39 40.8729 39 40.8729 39 40.983C39.1102 42.0847 39.3305 43.2966 39.5509 44.2881C40.4322 49.0254 42.3051 53.5424 44.839 57.5085C40.2119 61.4746 34.2627 63.7881 27.6526 63.8983H22.4746C15.9746 63.8983 10.6865 58.6102 10.6865 52.1102V14.2119C10.6865 12.5593 11.8983 11.1271 13.5508 11.0169C15.4237 10.7966 16.9661 12.339 16.9661 14.1017V53.1017C16.9661 56.0763 19.3899 58.6102 22.4746 58.6102C25.4492 58.6102 27.9831 56.1864 27.9831 53.1017V13.9915C27.9831 6.27966 21.7034 0 13.9915 0C6.27967 0 0 6.27966 0 13.9915V52.2203C0 64.6695 10.1356 74.8051 22.5847 74.8051H28.0932H32.3898C40.6526 74.8051 48.3644 72.161 54.6441 67.5339C60.9238 72.0508 68.5254 74.8051 76.8983 74.8051H81.305H86.8135C99.2627 74.8051 109.398 64.6695 109.398 52.2203V13.9915C108.958 6.27966 102.568 0 94.8559 0ZM54.2034 42.3051C51.2288 42.3051 48.6949 39.8813 48.6949 36.7966C48.6949 33.822 51.1186 31.2881 54.2034 31.2881C57.178 31.2881 59.7119 33.7119 59.7119 36.7966C59.6017 39.7712 57.178 42.3051 54.2034 42.3051Z" fill="url(#paint0_linear_3_6)"/>
<defs>
<linearGradient id="paint0_linear_3_6" x1="-0.392974" y1="37.4399" x2="108.909" y2="37.4399" gradientUnits="userSpaceOnUse">
<stop stop-color="#8DD1FF"/>
<stop offset="1" stop-color="#FF9999"/>
</linearGradient>
</defs>
</svg>
