<svg width="19" height="27" viewBox="0 0 19 27" fill="none" xmlns="http://www.w3.org/2000/svg">
<path d="M15.8855 13.87C15.8754 11.7596 16.7133 10.1667 18.4094 8.99364C17.4604 7.44679 16.0268 6.59573 14.1339 6.42897C12.3419 6.26796 10.3834 7.6193 9.66658 7.6193C8.9094 7.6193 7.17295 6.48647 5.81004 6.48647C2.99336 6.53822 0 9.0454 0 14.146C0 15.6526 0.242295 17.209 0.726886 18.8153C1.37301 20.9257 3.7051 26.1011 6.13815 26.0148C7.4102 25.9803 8.30871 24.9855 9.9644 24.9855C11.5696 24.9855 12.4025 26.0148 13.8209 26.0148C16.2742 25.9746 18.3842 21.2707 19 19.1546C15.7088 17.3892 15.8855 13.9792 15.8855 13.87ZM13.0284 4.42783C14.4065 2.5647 14.2803 0.868331 14.2399 0.258789C13.0234 0.339295 11.615 1.20185 10.8124 2.26568C9.92906 3.40426 9.40914 4.8131 9.52019 6.40021C10.8377 6.51522 12.0391 5.74467 13.0284 4.42783Z" fill="black"/>
</svg>
