<svg width="40" height="36" viewBox="0 0 40 36" fill="none" xmlns="http://www.w3.org/2000/svg">
<path d="M20 0C8.95313 0 0 7.48125 0 16.7143C0 20.7 1.67188 24.3482 4.45312 27.217C3.47656 31.267 0.210938 34.875 0.171875 34.9152C0 35.1 -0.046875 35.3732 0.0546875 35.6143C0.15625 35.8554 0.375 36 0.625 36C5.80469 36 9.6875 33.4446 11.6094 31.8696C14.1641 32.858 17 33.4286 20 33.4286C31.0469 33.4286 40 25.9473 40 16.7143C40 7.48125 31.0469 0 20 0ZM10 19.2857C8.61719 19.2857 7.5 18.1366 7.5 16.7143C7.5 15.292 8.61719 14.1429 10 14.1429C11.3828 14.1429 12.5 15.292 12.5 16.7143C12.5 18.1366 11.3828 19.2857 10 19.2857ZM20 19.2857C18.6172 19.2857 17.5 18.1366 17.5 16.7143C17.5 15.292 18.6172 14.1429 20 14.1429C21.3828 14.1429 22.5 15.292 22.5 16.7143C22.5 18.1366 21.3828 19.2857 20 19.2857ZM30 19.2857C28.6172 19.2857 27.5 18.1366 27.5 16.7143C27.5 15.292 28.6172 14.1429 30 14.1429C31.3828 14.1429 32.5 15.292 32.5 16.7143C32.5 18.1366 31.3828 19.2857 30 19.2857Z" fill="#115485"/>
</svg>
