<svg width="40" height="31" viewBox="0 0 40 31" fill="none" xmlns="http://www.w3.org/2000/svg">
<path d="M19.4697 8.04221L6.66719 18.5509V29.8927C6.66719 30.1864 6.78425 30.468 6.99261 30.6757C7.20096 30.8833 7.48356 31 7.77822 31L15.5596 30.9799C15.8533 30.9785 16.1344 30.8612 16.3416 30.6537C16.5487 30.4462 16.665 30.1654 16.665 29.8727V23.2491C16.665 22.9555 16.7821 22.6738 16.9904 22.4662C17.1988 22.2585 17.4814 22.1419 17.7761 22.1419H22.2202C22.5148 22.1419 22.7974 22.2585 23.0058 22.4662C23.2141 22.6738 23.3312 22.9555 23.3312 23.2491V29.8678C23.3307 30.0135 23.3591 30.1579 23.4148 30.2926C23.4704 30.4274 23.5522 30.5498 23.6554 30.653C23.7586 30.7562 23.8812 30.8381 24.0162 30.8939C24.1513 30.9498 24.296 30.9785 24.4422 30.9785L32.2208 31C32.5154 31 32.798 30.8833 33.0064 30.6757C33.2148 30.468 33.3318 30.1864 33.3318 29.8927V18.5433L20.5321 8.04221C20.3816 7.92133 20.1942 7.85541 20.0009 7.85541C19.8076 7.85541 19.6202 7.92133 19.4697 8.04221ZM39.6924 15.1848L33.8873 10.4159V0.83045C33.8873 0.610201 33.7995 0.398973 33.6433 0.243233C33.487 0.0874937 33.275 0 33.0541 0H29.1655C28.9445 0 28.7325 0.0874937 28.5763 0.243233C28.42 0.398973 28.3322 0.610201 28.3322 0.83045V5.85536L22.1153 0.757786C21.5187 0.268498 20.7701 0.000978094 19.9974 0.000978094C19.2248 0.000978094 18.4761 0.268498 17.8795 0.757786L0.302406 15.1848C0.218029 15.2543 0.14822 15.3397 0.0969688 15.4361C0.0457172 15.5325 0.0140272 15.638 0.00370954 15.7466C-0.00660814 15.8552 0.00464871 15.9648 0.0368369 16.0691C0.0690251 16.1733 0.121514 16.2703 0.191304 16.3543L1.962 18.4997C2.0316 18.584 2.11721 18.6538 2.21392 18.7052C2.31064 18.7565 2.41656 18.7883 2.52563 18.7988C2.6347 18.8093 2.74477 18.7982 2.84954 18.7662C2.95432 18.7343 3.05173 18.682 3.13622 18.6125L19.4697 5.20484C19.6202 5.08396 19.8076 5.01804 20.0009 5.01804C20.1942 5.01804 20.3816 5.08396 20.5321 5.20484L36.8663 18.6125C36.9506 18.682 37.0479 18.7343 37.1525 18.7664C37.2571 18.7985 37.3671 18.8097 37.476 18.7994C37.585 18.7891 37.6909 18.7576 37.7876 18.7065C37.8844 18.6554 37.97 18.5858 38.0398 18.5017L39.8105 16.3564C39.8802 16.2719 39.9325 16.1744 39.9643 16.0697C39.9961 15.965 40.0068 15.855 39.9958 15.7461C39.9849 15.6373 39.9524 15.5316 39.9003 15.4353C39.8483 15.3389 39.7776 15.2538 39.6924 15.1848Z" fill="#115485"/>
</svg>
