<svg width="40" height="40" viewBox="0 0 40 40" fill="none" xmlns="http://www.w3.org/2000/svg">
<path fill-rule="evenodd" clip-rule="evenodd" d="M27.842 27.842C32.1731 23.511 32.1731 16.489 27.842 12.158C23.511 7.82691 16.489 7.82691 12.158 12.158C7.82691 16.489 7.82691 23.511 12.158 27.842C16.489 32.1731 23.511 32.1731 27.842 27.842ZM30 30C35.5228 24.4772 35.5228 15.5228 30 10C24.4771 4.47715 15.5228 4.47715 10 10C4.47715 15.5228 4.47715 24.4772 10 30C15.5228 35.5228 24.4771 35.5228 30 30Z" fill="#115485"/>
<path fill-rule="evenodd" clip-rule="evenodd" d="M35.9996 36.0001L29.5996 29.6001L30.6786 28.5211L37.0786 34.9211L35.9996 36.0001Z" fill="#115485"/>
<path fill-rule="evenodd" clip-rule="evenodd" d="M35.9969 36.0002L29.5969 29.6002L28.5179 30.6792L34.9179 37.0792L35.9969 36.0002Z" fill="#115485"/>
</svg>
