<svg width="58" height="38" viewBox="0 0 58 38" fill="none" xmlns="http://www.w3.org/2000/svg">
<path d="M0.88 35.656V14.296C0.88 13.432 1.488 13 2.704 13C3.184 13 3.584 13.112 3.904 13.336C4.256 13.56 4.432 13.88 4.432 14.296V35.656C4.432 36.072 4.256 36.408 3.904 36.664C3.552 36.888 3.136 37 2.656 37C1.472 37 0.88 36.552 0.88 35.656ZM0.88 6.856V5.992C0.88 5.128 1.488 4.696 2.704 4.696C3.184 4.696 3.584 4.808 3.904 5.032C4.256 5.256 4.432 5.576 4.432 5.992V6.856C4.432 7.272 4.256 7.608 3.904 7.864C3.552 8.088 3.136 8.2 2.656 8.2C1.472 8.2 0.88 7.752 0.88 6.856ZM8.62413 14.776C8.62413 14.296 8.73613 13.88 8.96013 13.528C9.21613 13.176 9.55213 13 9.96813 13H11.6001V7.096C11.6001 6.68 11.7601 6.36 12.0801 6.136C12.4321 5.912 12.8481 5.8 13.3281 5.8C14.5441 5.8 15.1521 6.232 15.1521 7.096V13H22.8321C23.2481 13 23.5681 13.176 23.7921 13.528C24.0161 13.848 24.1281 14.248 24.1281 14.728C24.1281 15.944 23.6961 16.552 22.8321 16.552H15.1521V28.024C15.1521 31.608 16.5121 33.4 19.2321 33.4C20.3841 33.4 21.3761 33.08 22.2081 32.44C23.0721 31.8 23.5041 30.68 23.5041 29.08C23.5041 28.632 23.6801 28.264 24.0321 27.976C24.4161 27.688 24.8641 27.544 25.3761 27.544C25.8561 27.544 26.2561 27.688 26.5761 27.976C26.8961 28.232 27.0561 28.616 27.0561 29.128C27.0241 31.656 26.2561 33.592 24.7521 34.936C23.2801 36.28 21.4401 36.952 19.2321 36.952C14.1441 36.952 11.6001 33.544 11.6001 26.728V16.552H9.96813C9.07213 16.552 8.62413 15.96 8.62413 14.776ZM30.7394 35.752V2.248C30.7394 1.832 30.8994 1.512 31.2194 1.288C31.5714 1.064 31.9874 0.951998 32.4674 0.951998C33.6834 0.951998 34.2914 1.384 34.2914 2.248V18.184C35.8594 16.52 37.7794 15.208 40.0514 14.248C42.3234 13.288 44.6434 12.808 47.0114 12.808C50.0514 12.808 52.5794 13.704 54.5954 15.496C56.6114 17.256 57.6194 19.624 57.6194 22.6C57.6194 22.888 57.6034 24.36 57.5714 27.016C57.5714 29.64 57.5714 32.52 57.5714 35.656C57.5714 36.072 57.3954 36.408 57.0434 36.664C56.6914 36.888 56.2754 37 55.7954 37C54.6114 37 54.0194 36.552 54.0194 35.656V23.032C54.0194 21.464 53.5714 20.152 52.6754 19.096C51.8114 18.008 50.8514 17.272 49.7954 16.888C48.7394 16.504 47.6674 16.312 46.5794 16.312C44.2114 16.312 41.7954 17.048 39.3314 18.52C36.8994 19.992 35.2194 21.88 34.2914 24.184V35.752C34.2914 36.616 33.6834 37.048 32.4674 37.048C31.9874 37.048 31.5714 36.936 31.2194 36.712C30.8994 36.488 30.7394 36.168 30.7394 35.752Z" fill="#FF9999"/>
</svg>
