<svg width="176" height="87" viewBox="0 0 176 87" fill="none" xmlns="http://www.w3.org/2000/svg">
<path d="M115.88 73.656V52.296C115.88 51.432 116.488 51 117.704 51C118.184 51 118.584 51.112 118.904 51.336C119.256 51.56 119.432 51.88 119.432 52.296V73.656C119.432 74.072 119.256 74.408 118.904 74.664C118.552 74.888 118.136 75 117.656 75C116.472 75 115.88 74.552 115.88 73.656ZM115.88 44.856V43.992C115.88 43.128 116.488 42.696 117.704 42.696C118.184 42.696 118.584 42.808 118.904 43.032C119.256 43.256 119.432 43.576 119.432 43.992V44.856C119.432 45.272 119.256 45.608 118.904 45.864C118.552 46.088 118.136 46.2 117.656 46.2C116.472 46.2 115.88 45.752 115.88 44.856ZM123.624 52.776C123.624 52.296 123.736 51.88 123.96 51.528C124.216 51.176 124.552 51 124.968 51H126.6V45.096C126.6 44.68 126.76 44.36 127.08 44.136C127.432 43.912 127.848 43.8 128.328 43.8C129.544 43.8 130.152 44.232 130.152 45.096V51H137.832C138.248 51 138.568 51.176 138.792 51.528C139.016 51.848 139.128 52.248 139.128 52.728C139.128 53.944 138.696 54.552 137.832 54.552H130.152V66.024C130.152 69.608 131.512 71.4 134.232 71.4C135.384 71.4 136.376 71.08 137.208 70.44C138.072 69.8 138.504 68.68 138.504 67.08C138.504 66.632 138.68 66.264 139.032 65.976C139.416 65.688 139.864 65.544 140.376 65.544C140.856 65.544 141.256 65.688 141.576 65.976C141.896 66.232 142.056 66.616 142.056 67.128C142.024 69.656 141.256 71.592 139.752 72.936C138.28 74.28 136.44 74.952 134.232 74.952C129.144 74.952 126.6 71.544 126.6 64.728V54.552H124.968C124.072 54.552 123.624 53.96 123.624 52.776ZM145.739 73.752V40.248C145.739 39.832 145.899 39.512 146.219 39.288C146.571 39.064 146.987 38.952 147.467 38.952C148.683 38.952 149.291 39.384 149.291 40.248V56.184C150.859 54.52 152.779 53.208 155.051 52.248C157.323 51.288 159.643 50.808 162.011 50.808C165.051 50.808 167.579 51.704 169.595 53.496C171.611 55.256 172.619 57.624 172.619 60.6C172.619 60.888 172.603 62.36 172.571 65.016C172.571 67.64 172.571 70.52 172.571 73.656C172.571 74.072 172.395 74.408 172.043 74.664C171.691 74.888 171.275 75 170.795 75C169.611 75 169.019 74.552 169.019 73.656V61.032C169.019 59.464 168.571 58.152 167.675 57.096C166.811 56.008 165.851 55.272 164.795 54.888C163.739 54.504 162.667 54.312 161.579 54.312C159.211 54.312 156.795 55.048 154.331 56.52C151.899 57.992 150.219 59.88 149.291 62.184V73.752C149.291 74.616 148.683 75.048 147.467 75.048C146.987 75.048 146.571 74.936 146.219 74.712C145.899 74.488 145.739 74.168 145.739 73.752Z" fill="#FF9999"/>
<path d="M94.8559 0C87.1441 0 80.8644 6.27966 80.8644 13.9915V52.9915C80.8644 55.9661 83.2881 58.5 86.3729 58.5C89.3475 58.5 91.8814 56.0763 91.8814 52.9915V13.9915C91.8814 12.1186 93.4237 10.6864 95.2966 10.9068C96.9491 11.0169 98.161 12.5593 98.161 14.1017V52.1102C98.161 58.6102 92.8729 63.8983 86.3729 63.8983H81.0848C74.4746 63.8983 68.4153 61.4746 63.7881 57.5085C66.322 53.5424 68.1949 49.1356 69.0763 44.2881C69.2966 43.1864 69.4068 42.0847 69.6271 40.983C69.6271 40.983 69.6271 40.983 69.6271 40.8729C69.7373 40.2119 69.7373 39.661 69.7373 39C69.7373 38.4491 69.7373 37.7881 69.7373 37.2373C69.7373 37.2373 69.7373 37.2373 69.7373 37.1271C69.7373 37.1271 69.7373 37.1271 69.7373 37.0169C69.6271 28.5339 62.7966 21.7034 54.3135 21.7034C45.8305 21.7034 38.8898 28.5339 38.8898 37.0169C38.8898 37.0169 38.8898 37.0169 38.8898 37.1271C38.8898 37.1271 38.8898 37.1271 38.8898 37.2373C38.8898 37.8983 38.8898 38.4491 38.8898 39C38.8898 39.661 39 40.2119 39 40.8729C39 40.8729 39 40.8729 39 40.983C39.1102 42.0847 39.3305 43.2966 39.5509 44.2881C40.4322 49.0254 42.3051 53.5424 44.839 57.5085C40.2119 61.4746 34.2627 63.7881 27.6526 63.8983H22.4746C15.9746 63.8983 10.6865 58.6102 10.6865 52.1102V14.2119C10.6865 12.5593 11.8983 11.1271 13.5508 11.0169C15.4237 10.7966 16.9661 12.339 16.9661 14.1017V53.1017C16.9661 56.0763 19.3899 58.6102 22.4746 58.6102C25.4492 58.6102 27.9831 56.1864 27.9831 53.1017V13.9915C27.9831 6.27966 21.7034 0 13.9915 0C6.27967 0 0 6.27966 0 13.9915V52.2203C0 64.6695 10.1356 74.8051 22.5847 74.8051H28.0932H32.3898C40.6526 74.8051 48.3644 72.161 54.6441 67.5339C60.9238 72.0508 68.5254 74.8051 76.8983 74.8051H81.305H86.8135C99.2627 74.8051 109.398 64.6695 109.398 52.2203V13.9915C108.958 6.27966 102.568 0 94.8559 0ZM54.2034 42.3051C51.2288 42.3051 48.6949 39.8813 48.6949 36.7966C48.6949 33.822 51.1186 31.2881 54.2034 31.2881C57.178 31.2881 59.7119 33.7119 59.7119 36.7966C59.6017 39.7712 57.178 42.3051 54.2034 42.3051Z" fill="url(#paint0_linear_47_161)"/>
<path opacity="0.5" d="M54.2034 42.305C57.2457 42.305 59.7119 39.8387 59.7119 36.7965C59.7119 33.7543 57.2457 31.288 54.2034 31.288C51.1612 31.288 48.6949 33.7543 48.6949 36.7965C48.6949 39.8387 51.1612 42.305 54.2034 42.305Z" fill="white"/>
<defs>
<linearGradient id="paint0_linear_47_161" x1="-0.392974" y1="37.4399" x2="108.909" y2="37.4399" gradientUnits="userSpaceOnUse">
<stop stop-color="#8DD1FF"/>
<stop offset="1" stop-color="#FF9999"/>
</linearGradient>
</defs>
</svg>
