<svg width="24" height="20" viewBox="0 0 24 20" fill="none" xmlns="http://www.w3.org/2000/svg">
<path d="M23.2084 3.8984C22.9358 2.74888 22.1326 1.84355 21.1128 1.53631C19.2642 0.978027 11.8519 0.978027 11.8519 0.978027C11.8519 0.978027 4.43954 0.978027 2.59097 1.53631C1.57114 1.8436 0.767925 2.74888 0.495312 3.8984C0 5.98198 0 10.3292 0 10.3292C0 10.3292 0 14.6764 0.495312 16.7599C0.767925 17.9095 1.57114 18.7771 2.59097 19.0843C4.43954 19.6426 11.8519 19.6426 11.8519 19.6426C11.8519 19.6426 19.2642 19.6426 21.1128 19.0843C22.1326 18.7771 22.9358 17.9095 23.2084 16.7599C23.7037 14.6764 23.7037 10.3292 23.7037 10.3292C23.7037 10.3292 23.7037 5.98198 23.2084 3.8984ZM9.4276 14.2761V6.38224L15.6229 10.3293L9.4276 14.2761Z" fill="black"/>
</svg>
